<?xml version="1.0" standalone="no"?><!-- Generator: Gravit.io --><svg xmlns="http://www.w3.org/2000/svg" xmlns:xlink="http://www.w3.org/1999/xlink" style="isolation:isolate" viewBox="0 0 250 250" width="250" height="250"><defs><clipPath id="_clipPath_QjAFEtWHhlVYrxB9AylhepDaOR2ZuMkU"><rect width="250" height="250"/></clipPath></defs><g clip-path="url(#_clipPath_QjAFEtWHhlVYrxB9AylhepDaOR2ZuMkU)"><path d=" M 125 0 C 193.989 0 250 56.011 250 125 C 250 193.989 193.989 250 125 250 C 56.011 250 0 193.989 0 125 C 0 56.011 56.011 0 125 0 Z  M 125 10.145 C 187.565 10.145 238.364 61.611 238.364 125 C 238.364 188.394 187.565 239.855 125 239.86 C 62.435 239.86 11.636 188.394 11.636 125 C 11.636 61.611 62.435 10.145 125 10.145 Z  M 125 17.743 C 184.195 17.743 232.257 65.805 232.257 125 C 232.257 184.195 184.195 232.257 125 232.257 C 65.805 232.257 17.743 184.195 17.743 125 C 17.743 65.805 65.805 17.743 125 17.743 Z " fill-rule="evenodd" fill="rgb(74,134,232)" fill-opacity="0.8" vector-effect="non-scaling-stroke" stroke-width="2" stroke="rgb(162,162,162)" stroke-linejoin="round" stroke-linecap="butt" stroke-miterlimit="1.414"/><defs><filter id="wAPw7FkysoFf3hfZngwTfjwa8rONOO5R" x="-200%" y="-200%" width="400%" height="400%"><feGaussianBlur xmlns="http://www.w3.org/2000/svg" stdDeviation="0"/></filter></defs><g filter="url(#wAPw7FkysoFf3hfZngwTfjwa8rONOO5R)"><line x1="30" y1="131" x2="220" y2="131" vector-effect="non-scaling-stroke" stroke-width="5" stroke="rgb(0,0,153)" stroke-linejoin="miter" stroke-linecap="square" stroke-miterlimit="3"/></g><defs><filter id="gpZWDNoUIb4mgMJGZ2lX7d4l70QyiCui" x="-200%" y="-200%" width="400%" height="400%"><feOffset xmlns="http://www.w3.org/2000/svg" in="SourceAlpha" result="offOut" dx="3" dy="2"/><feGaussianBlur xmlns="http://www.w3.org/2000/svg" in="offOut" result="blurOut" stdDeviation="0"/><feComponentTransfer xmlns="http://www.w3.org/2000/svg" in="blurOut" result="opacOut"><feFuncA xmlns="http://www.w3.org/2000/svg" type="table" tableValues="0 0.5"/></feComponentTransfer><feBlend xmlns="http://www.w3.org/2000/svg" in="SourceGraphic" in2="opacOut" mode="normal"/></filter></defs><g filter="url(#gpZWDNoUIb4mgMJGZ2lX7d4l70QyiCui)"><g transform="matrix(1,0,0,1,31.372,70)"><text transform="matrix(1,0,0,1,2.706,39.48)" style="font-family:&quot;Raleway&quot;;font-weight:400;font-size:42px;font-style:normal;fill:#e0d8cc;stroke:none;">Studio 27</text></g></g><g transform="matrix(1,0,0,1,31.372,142)"><text transform="matrix(1,0,0,1,24.198,28.86)" style="font-family:&quot;Poiret One&quot;;font-weight:400;font-size:30px;font-style:normal;fill:#1c002e;stroke:none;">Developers</text></g></g></svg>