<?xml version="1.0" standalone="no"?><!-- Generator: Gravit.io --><svg xmlns="http://www.w3.org/2000/svg" xmlns:xlink="http://www.w3.org/1999/xlink" style="isolation:isolate" viewBox="0 0 250 250" width="250" height="250"><defs><clipPath id="_clipPath_hqS4xh7cArjGsJj56cfSUeRHWopi0pOP"><rect width="250" height="250"/></clipPath></defs><g clip-path="url(#_clipPath_hqS4xh7cArjGsJj56cfSUeRHWopi0pOP)"><rect width="250" height="250" style="fill:rgb(0,0,0)"/><path d=" M 21.928 116.472 C 21.928 63.779 65.169 21 118.428 21 C 171.688 21 214.928 63.779 214.928 116.472 C 214.928 169.164 171.688 211.944 118.428 211.944 C 65.169 211.944 21.928 169.164 21.928 116.472 Z " fill="rgb(74,134,232)" fill-opacity="0.5"/><path d=" M 148 71.5 C 191.049 71.5 226 105.779 226 148 C 226 190.221 191.049 224.5 148 224.5 C 104.951 224.5 70 190.221 70 148 C 70 105.779 104.951 71.5 148 71.5 Z  M 148 77.709 C 187.041 77.709 218.739 109.206 218.739 148 C 218.739 186.797 187.041 218.291 148 218.295 C 108.959 218.295 77.261 186.797 77.261 148 C 77.261 109.206 108.959 77.709 148 77.709 Z  M 148 82.359 C 184.938 82.359 214.928 111.772 214.928 148 C 214.928 184.228 184.938 213.641 148 213.641 C 111.062 213.641 81.072 184.228 81.072 148 C 81.072 111.772 111.062 82.359 148 82.359 Z " fill-rule="evenodd" fill="rgb(153,0,255)" fill-opacity="0.5"/><g transform="matrix(1,0,0,1,30.746,90.972)"><text transform="matrix(1,0,0,1,0,33.84)" style="font-family:&quot;Raleway&quot;;font-weight:400;font-size:36px;font-style:normal;fill:#1111bd;stroke:none;">Studio 27</text></g><g transform="matrix(1,0,0,1,75.536,121.222)"><text transform="matrix(1,0,0,1,0,34.292)" style="font-family:&quot;Quintessential&quot;;font-weight:400;font-size:30px;font-style:normal;fill:#060606;stroke:none;">Developers</text></g></g></svg>